<mxfile host="65bd71144e">
    <diagram id="ypy7G4jXzsRirywHQYYy" name="Page-1">
        <mxGraphModel dx="1384" dy="1266" grid="1" gridSize="10" guides="1" tooltips="1" connect="1" arrows="1" fold="1" page="1" pageScale="1" pageWidth="850" pageHeight="1100" math="0" shadow="0">
            <root>
                <mxCell id="0"/>
                <mxCell id="1" parent="0"/>
                <mxCell id="16" value="" style="rounded=1;whiteSpace=wrap;html=1;arcSize=6;" vertex="1" parent="1">
                    <mxGeometry x="250" y="10" width="400" height="260" as="geometry"/>
                </mxCell>
                <mxCell id="2" style="edgeStyle=orthogonalEdgeStyle;rounded=1;orthogonalLoop=1;jettySize=auto;html=1;exitX=0.25;exitY=1;exitDx=0;exitDy=0;entryX=0.5;entryY=0;entryDx=0;entryDy=0;dashed=1;endArrow=open;endFill=0;endSize=18;" edge="1" parent="1" source="14" target="8">
                    <mxGeometry relative="1" as="geometry">
                        <mxPoint x="375" y="70" as="sourcePoint"/>
                    </mxGeometry>
                </mxCell>
                <mxCell id="5" style="edgeStyle=orthogonalEdgeStyle;rounded=1;orthogonalLoop=1;jettySize=auto;html=1;exitX=0.75;exitY=1;exitDx=0;exitDy=0;entryX=0.5;entryY=0;entryDx=0;entryDy=0;dashed=1;endArrow=open;endFill=0;endSize=18;" edge="1" parent="1" source="14" target="12">
                    <mxGeometry relative="1" as="geometry">
                        <mxPoint x="485" y="70" as="sourcePoint"/>
                        <mxPoint x="570" y="156" as="targetPoint"/>
                    </mxGeometry>
                </mxCell>
                <mxCell id="8" value="Model" style="rounded=1;whiteSpace=wrap;html=1;arcSize=5;verticalAlign=top;fontSize=20;fillColor=#60a917;strokeColor=#2D7600;fontColor=#ffffff;shadow=1;" vertex="1" parent="1">
                    <mxGeometry x="272.5" y="160" width="160" height="85" as="geometry"/>
                </mxCell>
                <mxCell id="9" value="businessRule()" style="rounded=1;whiteSpace=wrap;html=1;arcSize=26;fontSize=17;fillColor=#60a917;strokeColor=#2D7600;fontColor=#ffffff;shadow=1;" vertex="1" parent="1">
                    <mxGeometry x="282.5" y="191" width="140" height="40" as="geometry"/>
                </mxCell>
                <mxCell id="12" value="View" style="rounded=1;whiteSpace=wrap;html=1;arcSize=5;verticalAlign=top;fontSize=20;fillColor=#1ba1e2;strokeColor=#006EAF;fontColor=#ffffff;shadow=1;" vertex="1" parent="1">
                    <mxGeometry x="467.5" y="160" width="160" height="85" as="geometry"/>
                </mxCell>
                <mxCell id="13" value="updateDisplay()" style="rounded=1;whiteSpace=wrap;html=1;arcSize=26;fontSize=17;fillColor=#1ba1e2;strokeColor=#006EAF;fontColor=#ffffff;shadow=1;" vertex="1" parent="1">
                    <mxGeometry x="477.5" y="191" width="140" height="40" as="geometry"/>
                </mxCell>
                <mxCell id="14" value="Controller" style="rounded=1;whiteSpace=wrap;html=1;arcSize=5;verticalAlign=top;fontSize=20;fillColor=#a20025;strokeColor=#6F0000;fontColor=#ffffff;shadow=1;" vertex="1" parent="1">
                    <mxGeometry x="370" y="30" width="160" height="85" as="geometry"/>
                </mxCell>
                <mxCell id="15" value="triggerChange()" style="rounded=1;whiteSpace=wrap;html=1;arcSize=26;fontSize=17;fillColor=#a20025;strokeColor=#6F0000;fontColor=#ffffff;shadow=1;" vertex="1" parent="1">
                    <mxGeometry x="380" y="61" width="140" height="40" as="geometry"/>
                </mxCell>
                <mxCell id="17" value="&lt;font style=&quot;font-size: 20px&quot;&gt;Agent&lt;/font&gt;" style="text;html=1;strokeColor=none;fillColor=none;align=center;verticalAlign=middle;whiteSpace=wrap;rounded=0;" vertex="1" parent="1">
                    <mxGeometry x="260" y="20" width="60" height="30" as="geometry"/>
                </mxCell>
                <mxCell id="18" value="" style="rounded=1;whiteSpace=wrap;html=1;arcSize=6;" vertex="1" parent="1">
                    <mxGeometry x="490" y="320" width="400" height="270" as="geometry"/>
                </mxCell>
                <mxCell id="19" style="edgeStyle=orthogonalEdgeStyle;rounded=1;orthogonalLoop=1;jettySize=auto;html=1;exitX=0.25;exitY=1;exitDx=0;exitDy=0;entryX=0.5;entryY=0;entryDx=0;entryDy=0;dashed=1;endArrow=open;endFill=0;endSize=18;" edge="1" parent="1" source="25" target="21">
                    <mxGeometry relative="1" as="geometry">
                        <mxPoint x="615" y="390" as="sourcePoint"/>
                    </mxGeometry>
                </mxCell>
                <mxCell id="20" style="edgeStyle=orthogonalEdgeStyle;rounded=1;orthogonalLoop=1;jettySize=auto;html=1;exitX=0.75;exitY=1;exitDx=0;exitDy=0;entryX=0.5;entryY=0;entryDx=0;entryDy=0;dashed=1;endArrow=open;endFill=0;endSize=18;" edge="1" parent="1" source="25" target="23">
                    <mxGeometry relative="1" as="geometry">
                        <mxPoint x="725" y="390" as="sourcePoint"/>
                        <mxPoint x="810" y="476" as="targetPoint"/>
                    </mxGeometry>
                </mxCell>
                <mxCell id="21" value="Model" style="rounded=1;whiteSpace=wrap;html=1;arcSize=5;verticalAlign=top;fontSize=20;fillColor=#60a917;strokeColor=#2D7600;fontColor=#ffffff;shadow=1;" vertex="1" parent="1">
                    <mxGeometry x="512.5" y="480" width="160" height="85" as="geometry"/>
                </mxCell>
                <mxCell id="22" value="businessRule()" style="rounded=1;whiteSpace=wrap;html=1;arcSize=26;fontSize=17;fillColor=#60a917;strokeColor=#2D7600;fontColor=#ffffff;shadow=1;" vertex="1" parent="1">
                    <mxGeometry x="522.5" y="511" width="140" height="40" as="geometry"/>
                </mxCell>
                <mxCell id="23" value="View" style="rounded=1;whiteSpace=wrap;html=1;arcSize=5;verticalAlign=top;fontSize=20;fillColor=#1ba1e2;strokeColor=#006EAF;fontColor=#ffffff;shadow=1;" vertex="1" parent="1">
                    <mxGeometry x="707.5" y="480" width="160" height="85" as="geometry"/>
                </mxCell>
                <mxCell id="24" value="updateDisplay()" style="rounded=1;whiteSpace=wrap;html=1;arcSize=26;fontSize=17;fillColor=#1ba1e2;strokeColor=#006EAF;fontColor=#ffffff;shadow=1;" vertex="1" parent="1">
                    <mxGeometry x="717.5" y="511" width="140" height="40" as="geometry"/>
                </mxCell>
                <mxCell id="25" value="Controller" style="rounded=1;whiteSpace=wrap;html=1;arcSize=5;verticalAlign=top;fontSize=20;fillColor=#a20025;strokeColor=#6F0000;fontColor=#ffffff;shadow=1;" vertex="1" parent="1">
                    <mxGeometry x="610" y="350" width="160" height="85" as="geometry"/>
                </mxCell>
                <mxCell id="26" value="triggerChange()" style="rounded=1;whiteSpace=wrap;html=1;arcSize=26;fontSize=17;fillColor=#a20025;strokeColor=#6F0000;fontColor=#ffffff;shadow=1;" vertex="1" parent="1">
                    <mxGeometry x="620" y="381" width="140" height="40" as="geometry"/>
                </mxCell>
                <mxCell id="27" value="&lt;font style=&quot;font-size: 20px&quot;&gt;Agent&lt;/font&gt;" style="text;html=1;strokeColor=none;fillColor=none;align=center;verticalAlign=middle;whiteSpace=wrap;rounded=0;" vertex="1" parent="1">
                    <mxGeometry x="500" y="340" width="60" height="30" as="geometry"/>
                </mxCell>
                <mxCell id="28" value="" style="rounded=1;whiteSpace=wrap;html=1;arcSize=6;" vertex="1" parent="1">
                    <mxGeometry x="10" y="320" width="400" height="270" as="geometry"/>
                </mxCell>
                <mxCell id="29" style="edgeStyle=orthogonalEdgeStyle;rounded=1;orthogonalLoop=1;jettySize=auto;html=1;exitX=0.25;exitY=1;exitDx=0;exitDy=0;entryX=0.5;entryY=0;entryDx=0;entryDy=0;dashed=1;endArrow=open;endFill=0;endSize=18;" edge="1" parent="1" source="35" target="31">
                    <mxGeometry relative="1" as="geometry">
                        <mxPoint x="135" y="390" as="sourcePoint"/>
                    </mxGeometry>
                </mxCell>
                <mxCell id="30" style="edgeStyle=orthogonalEdgeStyle;rounded=1;orthogonalLoop=1;jettySize=auto;html=1;exitX=0.75;exitY=1;exitDx=0;exitDy=0;entryX=0.5;entryY=0;entryDx=0;entryDy=0;dashed=1;endArrow=open;endFill=0;endSize=18;" edge="1" parent="1" source="35" target="33">
                    <mxGeometry relative="1" as="geometry">
                        <mxPoint x="245" y="390" as="sourcePoint"/>
                        <mxPoint x="330" y="476" as="targetPoint"/>
                    </mxGeometry>
                </mxCell>
                <mxCell id="31" value="Model" style="rounded=1;whiteSpace=wrap;html=1;arcSize=5;verticalAlign=top;fontSize=20;fillColor=#60a917;strokeColor=#2D7600;fontColor=#ffffff;shadow=1;" vertex="1" parent="1">
                    <mxGeometry x="32.5" y="480" width="160" height="85" as="geometry"/>
                </mxCell>
                <mxCell id="32" value="businessRule()" style="rounded=1;whiteSpace=wrap;html=1;arcSize=26;fontSize=17;fillColor=#60a917;strokeColor=#2D7600;fontColor=#ffffff;shadow=1;" vertex="1" parent="1">
                    <mxGeometry x="42.5" y="511" width="140" height="40" as="geometry"/>
                </mxCell>
                <mxCell id="33" value="View" style="rounded=1;whiteSpace=wrap;html=1;arcSize=5;verticalAlign=top;fontSize=20;fillColor=#1ba1e2;strokeColor=#006EAF;fontColor=#ffffff;shadow=1;" vertex="1" parent="1">
                    <mxGeometry x="227.5" y="480" width="160" height="85" as="geometry"/>
                </mxCell>
                <mxCell id="34" value="updateDisplay()" style="rounded=1;whiteSpace=wrap;html=1;arcSize=26;fontSize=17;fillColor=#1ba1e2;strokeColor=#006EAF;fontColor=#ffffff;shadow=1;" vertex="1" parent="1">
                    <mxGeometry x="237.5" y="511" width="140" height="40" as="geometry"/>
                </mxCell>
                <mxCell id="35" value="Controller" style="rounded=1;whiteSpace=wrap;html=1;arcSize=5;verticalAlign=top;fontSize=20;fillColor=#a20025;strokeColor=#6F0000;fontColor=#ffffff;shadow=1;" vertex="1" parent="1">
                    <mxGeometry x="130" y="350" width="160" height="85" as="geometry"/>
                </mxCell>
                <mxCell id="36" value="triggerChange()" style="rounded=1;whiteSpace=wrap;html=1;arcSize=26;fontSize=17;fillColor=#a20025;strokeColor=#6F0000;fontColor=#ffffff;shadow=1;" vertex="1" parent="1">
                    <mxGeometry x="140" y="381" width="140" height="40" as="geometry"/>
                </mxCell>
                <mxCell id="37" value="&lt;font style=&quot;font-size: 20px&quot;&gt;Agent&lt;/font&gt;" style="text;html=1;strokeColor=none;fillColor=none;align=center;verticalAlign=middle;whiteSpace=wrap;rounded=0;" vertex="1" parent="1">
                    <mxGeometry x="20" y="340" width="60" height="30" as="geometry"/>
                </mxCell>
                <mxCell id="40" style="edgeStyle=orthogonalEdgeStyle;rounded=1;orthogonalLoop=1;jettySize=auto;html=1;exitX=1;exitY=0.5;exitDx=0;exitDy=0;entryX=0.5;entryY=0;entryDx=0;entryDy=0;endArrow=open;endFill=0;endSize=20;" edge="1" parent="1" source="14" target="25">
                    <mxGeometry relative="1" as="geometry"/>
                </mxCell>
                <mxCell id="41" style="edgeStyle=orthogonalEdgeStyle;rounded=1;orthogonalLoop=1;jettySize=auto;html=1;exitX=0;exitY=0.5;exitDx=0;exitDy=0;entryX=0.5;entryY=0;entryDx=0;entryDy=0;endArrow=open;endFill=0;endSize=20;" edge="1" parent="1" source="14" target="35">
                    <mxGeometry relative="1" as="geometry"/>
                </mxCell>
            </root>
        </mxGraphModel>
    </diagram>
</mxfile>